<mxfile host="app.diagrams.net" modified="2023-04-21T00:24:29.791Z" agent="Mozilla/5.0 (Macintosh; Intel Mac OS X 10_15_7) AppleWebKit/537.36 (KHTML, like Gecko) Chrome/112.0.0.0 Safari/537.36" version="21.1.1" etag="4wYXgVcZdj4NgmWBkssf" type="github">
  <diagram name="Page-1" id="oDZeocqG2rsz0gOME2x6">
    <mxGraphModel>
      <root>
        <mxCell id="0" />
        <mxCell id="1" parent="0" />
      </root>
    </mxGraphModel>
  </diagram>
</mxfile>
